<svg xmlns="http://www.w3.org/2000/svg" viewBox="0 0 512 512">
<defs><linearGradient id="bg" x1="0" y1="0" x2="0" y2="1"><stop offset="0" stop-color="rgb(44,66,36)"/><stop offset="1" stop-color="rgb(28,36,23)"/></linearGradient></defs>
<rect width="512" height="512" rx="112" fill="url(#bg)"/>
<ellipse cx="192.8" cy="245.1" rx="32" ry="14" transform="rotate(-85.8 192.8 245.1)" fill="rgb(123,203,87)"/><ellipse cx="276.4" cy="278.0" rx="32" ry="14" transform="rotate(47.1 276.4 278.0)" fill="rgb(123,203,87)"/><ellipse cx="322.7" cy="207.1" rx="32" ry="14" transform="rotate(-87.7 322.7 207.1)" fill="rgb(123,203,87)"/>
<path d="M150,360 C150,190 362,322 362,152" fill="none" stroke="rgb(95,174,74)" stroke-width="34" stroke-linecap="round"/>
<path d="M150,360 C150,190 362,322 362,152" fill="none" stroke="rgb(185,236,154)" stroke-width="9" stroke-linecap="round" opacity=".5" transform="translate(-5 -6)"/>
<ellipse cx="190.1" cy="372.4" rx="40" ry="27" transform="rotate(17.2 190.1 372.4)" fill="rgb(242,84,91)"/><ellipse cx="150.6" cy="402.0" rx="40" ry="27" transform="rotate(89.2 150.6 402.0)" fill="rgb(242,84,91)"/><ellipse cx="110.2" cy="373.5" rx="40" ry="27" transform="rotate(161.2 110.2 373.5)" fill="rgb(242,84,91)"/><ellipse cx="124.8" cy="326.4" rx="40" ry="27" transform="rotate(233.2 124.8 326.4)" fill="rgb(242,84,91)"/><ellipse cx="174.2" cy="325.7" rx="40" ry="27" transform="rotate(305.2 174.2 325.7)" fill="rgb(242,84,91)"/><circle cx="150" cy="360" r="26" fill="rgb(255,214,107)"/>
<ellipse cx="403.2" cy="143.7" rx="40" ry="27" transform="rotate(-11.5 403.2 143.7)" fill="rgb(61,125,242)"/><ellipse cx="382.7" cy="188.6" rx="40" ry="27" transform="rotate(60.5 382.7 188.6)" fill="rgb(61,125,242)"/><ellipse cx="333.6" cy="182.9" rx="40" ry="27" transform="rotate(132.5 333.6 182.9)" fill="rgb(61,125,242)"/><ellipse cx="323.8" cy="134.6" rx="40" ry="27" transform="rotate(204.5 323.8 134.6)" fill="rgb(61,125,242)"/><ellipse cx="366.8" cy="110.3" rx="40" ry="27" transform="rotate(276.5 366.8 110.3)" fill="rgb(61,125,242)"/><circle cx="362" cy="152" r="26" fill="rgb(255,214,107)"/>
</svg>
